<svg width="548" height="406" viewBox="0 0 548 406" fill="none" xmlns="http://www.w3.org/2000/svg">
<path opacity="0.6" d="M318.251 80.5496C283.183 79.3301 249.758 68.0018 217.888 55.6102C186.019 43.2187 154.431 29.4866 120.185 22.9205C98.1664 18.6925 72.9852 18.0979 55.2475 29.9099C38.1746 41.2735 32.6599 60.8914 29.6935 79.0933C27.4625 92.79 26.1682 107.202 32.2671 120.027C36.5126 128.927 44.0469 136.41 49.2594 144.936C67.3899 174.603 54.5726 211.188 34.9212 240.179C25.7048 253.785 15.0129 266.731 7.90167 281.198C0.790478 295.666 -2.50323 312.24 3.72158 326.995C9.89099 341.609 24.5868 352.605 40.5114 360.33C72.8542 376.007 110.964 380.492 148.126 383.062C230.388 388.691 313.094 386.252 395.572 383.813C426.097 382.906 456.758 381.994 486.784 377.262C503.459 374.637 520.678 370.474 532.785 360.426C548.151 347.666 551.963 326.068 541.664 310.068C524.39 283.239 476.631 276.572 464.554 247.778C457.911 231.929 464.735 214.272 474.395 199.572C495.109 168.042 529.839 140.376 531.667 104.33C532.926 79.572 516.231 54.7838 490.415 43.0675C463.36 30.7767 425.84 32.3288 405.882 52.6421C385.329 73.5702 349.209 81.623 318.251 80.5496Z" fill="#587EEC"/>
<path d="M122.436 376.36C122.436 376.36 94.7368 355.407 89.5042 328.754C87.3822 317.56 81.6903 307.356 73.2824 299.672C69.2602 296.058 64.9159 292.819 60.304 289.997" stroke="#9AB1F3" stroke-width="2" stroke-miterlimit="10"/>
<path d="M56.9146 273.206C59.342 276.492 60.4399 290.415 60.4399 290.415C60.4399 290.415 47.4615 285.301 45.029 282.02C43.8609 280.443 43.3668 278.466 43.6554 276.525C43.9439 274.583 44.9915 272.836 46.5676 271.667C48.1437 270.498 50.1193 270.004 52.0597 270.292C54.0002 270.581 55.7465 271.629 56.9146 273.206Z" fill="#587EEC"/>
<path d="M80.1922 284.131C80.4441 288.208 73.8113 300.494 73.8113 300.494C73.8113 300.494 65.6878 289.135 65.431 285.059C65.3333 283.115 66.0049 281.211 67.3003 279.76C68.5957 278.308 70.4105 277.426 72.3515 277.304C74.2925 277.182 76.2034 277.83 77.6701 279.108C79.1368 280.386 80.0411 282.191 80.1872 284.131H80.1922Z" fill="#587EEC"/>
<path d="M102.755 315.536C100.921 319.185 88.9905 326.441 88.9905 326.441C88.9905 326.441 87.7163 312.533 89.5495 308.884C90.4519 307.169 91.9914 305.876 93.8368 305.284C95.6821 304.693 97.6857 304.85 99.4164 305.722C101.147 306.594 102.467 308.111 103.091 309.946C103.715 311.782 103.594 313.789 102.755 315.536Z" fill="#587EEC"/>
<path d="M114.484 343.131C113.29 347.037 102.759 356.203 102.759 356.203C102.759 356.203 99.1484 342.713 100.342 338.802C100.916 336.926 102.211 335.354 103.943 334.434C105.674 333.513 107.701 333.318 109.576 333.892C111.451 334.466 113.022 335.762 113.942 337.494C114.863 339.227 115.058 341.255 114.484 343.131Z" fill="#587EEC"/>
<path d="M61.8047 310.371C65.8337 310.915 78.5704 305.16 78.5704 305.16C78.5704 305.16 67.8231 296.251 63.7739 295.707C61.8305 295.445 59.8629 295.967 58.304 297.158C56.7452 298.348 55.7227 300.109 55.4616 302.054C55.2004 303.998 55.722 305.967 56.9116 307.527C58.1012 309.087 59.8613 310.11 61.8047 310.371Z" fill="#587EEC"/>
<path d="M75.9314 342.476C79.9604 341.786 90.3703 332.488 90.3703 332.488C90.3703 332.488 77.4473 327.207 73.4233 327.897C72.4599 328.055 71.5373 328.403 70.7088 328.92C69.8802 329.436 69.1622 330.112 68.5961 330.908C68.0299 331.704 67.6269 332.604 67.4103 333.556C67.1937 334.509 67.1678 335.495 67.3341 336.458C67.5003 337.42 67.8555 338.34 68.379 339.165C68.9026 339.989 69.5842 340.702 70.3844 341.261C71.1847 341.821 72.0877 342.216 73.0415 342.425C73.9953 342.633 74.9809 342.651 75.9415 342.476H75.9314Z" fill="#587EEC"/>
<path d="M93.936 371.8C98.0204 371.8 109.856 364.397 109.856 364.397C109.856 364.397 98.0153 357.004 93.9309 357.004C91.9701 357.004 90.0896 357.784 88.7031 359.171C87.3166 360.558 86.5377 362.44 86.5377 364.402C86.5377 366.364 87.3166 368.245 88.7031 369.633C90.0896 371.02 91.9701 371.8 93.9309 371.8H93.936Z" fill="#587EEC"/>
<path d="M391.523 195.133C391.523 195.133 408.596 164.872 434.331 156.154C445.138 152.563 454.489 145.563 460.983 136.203C464.029 131.729 466.657 126.984 468.835 122.028" stroke="#9AB1F3" stroke-width="2" stroke-miterlimit="10"/>
<path d="M484.991 116.485C482.06 119.327 468.417 122.27 468.417 122.27C468.417 122.27 471.766 108.714 474.697 105.867C476.112 104.542 477.99 103.825 479.928 103.872C481.865 103.918 483.707 104.724 485.056 106.116C486.406 107.508 487.155 109.375 487.143 111.314C487.131 113.253 486.358 115.11 484.991 116.485Z" fill="#587EEC"/>
<path d="M477.275 140.991C473.246 141.787 460.218 136.838 460.218 136.838C460.218 136.838 470.391 127.264 474.395 126.483C475.356 126.269 476.35 126.25 477.319 126.426C478.288 126.603 479.212 126.971 480.037 127.509C480.861 128.048 481.57 128.746 482.122 129.562C482.673 130.378 483.056 131.297 483.248 132.263C483.44 133.229 483.437 134.225 483.239 135.19C483.041 136.155 482.653 137.071 482.097 137.884C481.54 138.697 480.827 139.391 479.999 139.924C479.171 140.458 478.245 140.82 477.275 140.991Z" fill="#587EEC"/>
<path d="M449.193 167.538C445.336 166.202 436.567 155.338 436.567 155.338C436.567 155.338 450.165 152.223 454.033 153.559C454.962 153.867 455.821 154.357 456.56 155.001C457.298 155.644 457.902 156.427 458.335 157.306C458.768 158.184 459.023 159.14 459.084 160.118C459.145 161.096 459.012 162.076 458.691 163.002C458.371 163.927 457.87 164.78 457.217 165.511C456.565 166.241 455.773 166.834 454.89 167.256C454.006 167.678 453.048 167.921 452.07 167.969C451.092 168.017 450.114 167.871 449.193 167.538Z" fill="#587EEC"/>
<path d="M423.388 182.837C419.359 182.172 408.903 172.925 408.903 172.925C408.903 172.925 421.791 167.553 425.815 168.218C427.752 168.537 429.483 169.612 430.627 171.208C431.771 172.804 432.235 174.789 431.916 176.727C431.598 178.665 430.523 180.397 428.928 181.541C427.334 182.686 425.35 183.151 423.413 182.832L423.388 182.837Z" fill="#587EEC"/>
<path d="M448.841 126.241C448.836 130.328 456.244 142.185 456.244 142.185C456.244 142.185 463.642 130.343 463.642 126.261C463.668 125.274 463.496 124.291 463.136 123.371C462.776 122.451 462.236 121.613 461.547 120.906C460.858 120.198 460.035 119.636 459.126 119.252C458.216 118.868 457.239 118.67 456.252 118.67C455.265 118.67 454.287 118.868 453.378 119.252C452.468 119.636 451.645 120.198 450.956 120.906C450.267 121.613 449.727 122.451 449.367 123.371C449.007 124.291 448.835 125.274 448.861 126.261L448.841 126.241Z" fill="#587EEC"/>
<path d="M418.91 144.513C420.129 148.414 430.725 157.509 430.725 157.509C430.725 157.509 434.251 143.994 433.022 140.094C432.385 138.287 431.071 136.798 429.359 135.94C427.646 135.082 425.668 134.923 423.84 135.496C422.013 136.069 420.478 137.329 419.561 139.011C418.643 140.693 418.414 142.665 418.92 144.513H418.91Z" fill="#587EEC"/>
<path d="M392.284 166.268C392.828 170.299 401.732 181.068 401.732 181.068C401.732 181.068 407.478 168.344 406.934 164.297C406.826 163.317 406.523 162.368 406.044 161.506C405.564 160.645 404.917 159.888 404.14 159.28C403.364 158.672 402.474 158.226 401.522 157.968C400.571 157.709 399.577 157.644 398.6 157.775C397.623 157.907 396.683 158.232 395.833 158.733C394.984 159.234 394.243 159.899 393.654 160.69C393.066 161.482 392.641 162.383 392.406 163.341C392.171 164.298 392.129 165.294 392.284 166.268Z" fill="#587EEC"/>
<path opacity="0.25" d="M484.991 116.485C482.06 119.327 468.417 122.27 468.417 122.27C468.417 122.27 471.766 108.714 474.697 105.867C476.112 104.542 477.99 103.825 479.928 103.872C481.865 103.918 483.707 104.724 485.056 106.116C486.406 107.508 487.155 109.375 487.143 111.314C487.131 113.253 486.358 115.11 484.991 116.485Z" fill="black"/>
<path opacity="0.25" d="M477.275 140.991C473.246 141.787 460.218 136.838 460.218 136.838C460.218 136.838 470.391 127.264 474.395 126.483C475.356 126.269 476.35 126.25 477.319 126.426C478.288 126.603 479.212 126.971 480.037 127.509C480.861 128.048 481.57 128.746 482.122 129.562C482.673 130.378 483.056 131.297 483.248 132.263C483.44 133.229 483.437 134.225 483.239 135.19C483.041 136.155 482.653 137.071 482.097 137.884C481.54 138.697 480.827 139.391 479.999 139.924C479.171 140.458 478.245 140.82 477.275 140.991Z" fill="black"/>
<path opacity="0.25" d="M449.193 167.538C445.336 166.202 436.567 155.338 436.567 155.338C436.567 155.338 450.165 152.223 454.033 153.559C454.962 153.867 455.821 154.357 456.56 155.001C457.298 155.644 457.902 156.427 458.335 157.306C458.768 158.184 459.023 159.14 459.084 160.118C459.145 161.096 459.012 162.076 458.691 163.002C458.371 163.927 457.87 164.78 457.217 165.511C456.565 166.241 455.773 166.834 454.89 167.256C454.006 167.678 453.048 167.921 452.07 167.969C451.092 168.017 450.114 167.871 449.193 167.538Z" fill="black"/>
<path opacity="0.25" d="M423.388 182.837C419.359 182.172 408.903 172.925 408.903 172.925C408.903 172.925 421.791 167.553 425.815 168.218C427.752 168.537 429.483 169.612 430.627 171.208C431.771 172.804 432.235 174.789 431.916 176.727C431.598 178.665 430.523 180.397 428.928 181.541C427.334 182.686 425.35 183.151 423.413 182.832L423.388 182.837Z" fill="black"/>
<path opacity="0.25" d="M448.841 126.241C448.836 130.328 456.244 142.185 456.244 142.185C456.244 142.185 463.642 130.343 463.642 126.261C463.668 125.274 463.496 124.291 463.136 123.371C462.776 122.451 462.236 121.613 461.547 120.906C460.858 120.198 460.035 119.636 459.126 119.252C458.216 118.868 457.239 118.67 456.252 118.67C455.265 118.67 454.287 118.868 453.378 119.252C452.468 119.636 451.645 120.198 450.956 120.906C450.267 121.613 449.727 122.451 449.367 123.371C449.007 124.291 448.835 125.274 448.861 126.261L448.841 126.241Z" fill="black"/>
<path opacity="0.25" d="M418.91 144.513C420.129 148.414 430.725 157.509 430.725 157.509C430.725 157.509 434.251 143.994 433.022 140.094C432.385 138.287 431.071 136.798 429.359 135.94C427.646 135.082 425.668 134.923 423.84 135.496C422.013 136.069 420.478 137.329 419.561 139.011C418.643 140.693 418.414 142.665 418.92 144.513H418.91Z" fill="black"/>
<path opacity="0.25" d="M392.284 166.268C392.828 170.299 401.732 181.068 401.732 181.068C401.732 181.068 407.478 168.344 406.934 164.297C406.826 163.317 406.523 162.368 406.044 161.506C405.564 160.645 404.917 159.888 404.14 159.28C403.364 158.672 402.474 158.226 401.522 157.968C400.571 157.709 399.577 157.644 398.6 157.775C397.623 157.907 396.683 158.232 395.833 158.733C394.984 159.234 394.243 159.899 393.654 160.69C393.066 161.482 392.641 162.383 392.406 163.341C392.171 164.298 392.129 165.294 392.284 166.268Z" fill="black"/>
<path d="M392.505 194.533C392.505 194.533 395.859 159.943 415.833 141.55C424.258 133.884 429.972 123.693 432.12 112.504C433.098 107.184 433.585 101.787 433.576 96.3781" stroke="#9AB1F3" stroke-width="2" stroke-miterlimit="10"/>
<path d="M446.096 84.7071C444.585 88.4966 433.284 96.7207 433.284 96.7207C433.284 96.7207 430.856 82.9685 432.382 79.179C433.117 77.3594 434.544 75.9063 436.349 75.1394C438.155 74.3724 440.191 74.3546 442.009 75.0896C443.828 75.8247 445.28 77.2525 446.046 79.059C446.813 80.8654 446.831 82.9026 446.096 84.7222V84.7071Z" fill="#587EEC"/>
<path d="M448.972 110.266C445.633 112.615 431.697 113.386 431.697 113.386C431.697 113.386 437.126 100.515 440.465 98.167C441.257 97.574 442.16 97.146 443.12 96.9083C444.08 96.6707 445.078 96.6283 446.055 96.7835C447.032 96.9388 447.968 97.2886 448.807 97.8123C449.647 98.3359 450.372 99.0227 450.942 99.8321C451.511 100.641 451.912 101.557 452.121 102.524C452.331 103.491 452.344 104.491 452.16 105.463C451.976 106.436 451.6 107.362 451.052 108.186C450.504 109.01 449.797 109.716 448.972 110.261V110.266Z" fill="#587EEC"/>
<path d="M434.034 145.934C429.965 146.277 417.546 139.887 417.546 139.887C417.546 139.887 428.726 131.522 432.795 131.179C434.75 131.015 436.689 131.634 438.187 132.9C439.685 134.167 440.619 135.977 440.783 137.932C440.947 139.887 440.329 141.828 439.063 143.326C437.797 144.825 435.988 145.76 434.034 145.924V145.934Z" fill="#587EEC"/>
<path d="M416.654 170.37C412.701 171.378 399.385 167.21 399.385 167.21C399.385 167.21 408.989 157.076 412.942 156.048C414.84 155.556 416.856 155.838 418.546 156.832C420.237 157.827 421.463 159.453 421.955 161.352C422.447 163.251 422.165 165.268 421.171 166.959C420.177 168.65 418.552 169.877 416.654 170.37Z" fill="#587EEC"/>
<path d="M417.007 108.311C418.659 112.045 430.212 119.901 430.212 119.901C430.212 119.901 432.176 106.074 430.524 102.339C429.701 100.592 428.228 99.2367 426.419 98.5622C424.61 97.8876 422.609 97.9476 420.844 98.7293C419.079 99.5111 417.69 100.953 416.973 102.746C416.256 104.539 416.268 106.542 417.007 108.326V108.311Z" fill="#587EEC"/>
<path d="M397.043 137.146C399.737 140.215 413.104 144.236 413.104 144.236C413.104 144.236 410.847 130.454 408.153 127.385C407.517 126.639 406.739 126.028 405.865 125.585C404.991 125.143 404.037 124.879 403.06 124.809C402.083 124.738 401.102 124.863 400.173 125.175C399.245 125.488 398.388 125.982 397.652 126.629C396.915 127.275 396.315 128.062 395.886 128.943C395.456 129.824 395.205 130.781 395.149 131.76C395.092 132.738 395.23 133.718 395.556 134.643C395.881 135.568 396.386 136.418 397.043 137.146Z" fill="#587EEC"/>
<path d="M381.486 167.845C383.621 171.322 396.116 177.546 396.116 177.546C396.116 177.546 396.222 163.582 394.102 160.1C393.046 158.492 391.407 157.359 389.53 156.94C387.654 156.522 385.688 156.852 384.05 157.859C382.413 158.867 381.232 160.473 380.758 162.337C380.284 164.201 380.554 166.177 381.511 167.845H381.486Z" fill="#587EEC"/>
<path d="M366.82 59.0723C367.656 56.0034 368.664 52.9194 369.369 49.8101C368.523 52.9194 367.51 56.0135 366.82 59.0723Z" fill="url(#paint0_linear_4_6)"/>
<path d="M363.073 88.6327C363.003 88.5117 362.953 88.3908 362.897 88.2799C362.897 88.2295 362.847 88.1892 362.827 88.1388C362.717 88.1906 362.604 88.2361 362.489 88.2749C362.268 88.3606 362.041 88.4412 361.809 88.5067C361.578 88.5722 361.482 88.6075 361.306 88.6478C361.16 88.6982 361.01 88.7369 360.857 88.7637L360.898 88.8544C361.084 88.8141 361.265 88.7788 361.452 88.7284L361.502 89.3533C361.714 89.3533 361.91 89.3231 362.101 89.3231C362.192 89.3181 362.283 89.3181 362.373 89.3231C362.766 89.3231 363.109 89.3231 363.381 89.3231C363.275 89.0963 363.164 88.8594 363.073 88.6327ZM465.309 251.467C462.942 248.277 458.218 214.04 458.218 214.04C458.218 214.04 448.926 189.695 451.46 179.98C453.993 170.264 444.54 145.405 444.54 145.405C444.54 145.405 438.295 142.689 437.957 138.658C437.957 138.658 412.459 130.595 411.265 124.548C410.298 119.589 394.484 116.031 388.804 114.907C387.071 107.913 385.329 101.387 384.044 97.8243C383.697 96.7157 383.369 95.7582 383.067 95.0023C380.897 89.4591 374.188 88.9552 369.323 89.3986C369.113 88.4539 368.721 87.5589 368.17 86.7631C368.09 86.4895 367.93 86.2458 367.712 86.0626C367.607 85.9736 367.496 85.8927 367.379 85.8208C367.291 85.6574 367.175 85.5108 367.037 85.3874C366.899 85.2628 366.747 85.1546 366.584 85.0649C366.467 85.0015 366.345 84.946 366.221 84.8986C365.929 84.7874 365.627 84.7047 365.32 84.6516C364.961 84.5778 364.597 84.5307 364.232 84.5106C365.121 84.1215 365.913 83.5417 366.553 82.8123C366.989 82.3002 367.313 81.703 367.505 81.0586C367.665 80.5228 367.736 79.9646 367.717 79.4058C367.586 79.636 367.434 79.8537 367.264 80.0558C367.475 77.8234 366.297 75.5557 365.622 73.3334C364.804 70.4403 364.652 67.3993 365.178 64.4391C365.853 59.9743 367.525 55.4591 368.659 50.9137C368.661 50.8886 368.661 50.8632 368.659 50.8381C369.253 48.5808 369.621 46.2697 369.756 43.9393C369.953 39.2377 368.749 34.5461 366.815 30.2628C365.098 26.4682 362.565 22.7341 358.687 21.1921C355.806 20.028 352.578 20.2144 349.475 20.0229C342.515 19.5896 335.878 17.1405 329.26 14.9131C322.642 12.6858 315.833 10.66 308.868 11.048C301.903 11.436 294.736 14.7972 291.559 20.9653C290.551 22.8903 289.972 25.032 288.768 26.8411C286.512 30.2527 282.473 31.961 279.104 34.3143C275.735 36.6677 272.768 40.0087 271.55 43.9948C270.884 46.1423 270.79 48.4265 271.278 50.6214C271.387 51.1171 271.529 51.6052 271.701 52.0828C272.179 53.4143 272.924 54.6337 273.891 55.6657C274.621 56.4285 275.459 57.0789 276.379 57.5958C277.535 58.2366 278.771 58.718 280.056 59.0269C280.01 59.1781 279.965 59.3394 279.915 59.4956C279.834 59.7526 279.764 59.9995 279.688 60.2767C279.522 60.8965 279.366 61.5264 279.235 62.1614C279.23 62.2066 279.23 62.2522 279.235 62.2974C278.616 65.1637 278.306 68.088 278.308 71.0204C278.307 72.4072 278.378 73.7932 278.52 75.1728C280.534 95.6221 297.406 111.753 318.251 112.801C318.966 112.836 319.686 112.856 320.416 112.856C320.749 112.856 321.076 112.856 321.424 112.856C321.751 113.29 322.073 113.733 322.38 114.167C322.688 114.6 322.97 115.044 323.237 115.477L322.506 114.721L321.776 114.051C321.578 114.323 321.357 114.577 321.116 114.812C320.64 114.644 320.154 114.506 319.661 114.398C317.571 113.935 314.388 113.764 310.198 115.028C306.345 116.182 301.636 118.556 296.126 123.066L269.278 139.192L254.754 148.031L249.521 160.83C249.521 160.83 245.588 176.039 241.211 193.465C241.04 193.515 240.874 193.565 240.708 193.626C240.353 193.586 239.997 193.565 239.64 193.565C237.101 193.56 234.658 194.538 232.825 196.297C230.992 198.055 229.911 200.455 229.809 202.994C221.106 213.576 220.613 224.159 222.658 229.017C222.843 229.472 223.076 229.906 223.353 230.312C224.692 232.247 227.195 237.236 229.734 242.552C229.668 242.991 229.628 243.359 229.608 243.636C229.603 243.726 229.603 243.817 229.608 243.908C229.608 243.908 231.118 266.741 226.082 273.287C224.979 274.713 225.145 276.588 226.082 278.664C229.457 286.132 242.798 296.105 242.798 296.105C242.798 296.105 258.798 296.019 267.712 295.046C267.687 295.943 267.667 296.835 267.646 297.707C267.445 306.516 267.445 313.898 267.445 313.898L267.113 323.135C267.113 323.135 264.091 342.602 262.58 347.969C261.628 351.335 262.726 382.503 263.683 405.417H421.328C423.181 391.861 420.567 350.675 420.567 350.675C420.567 350.675 418.084 340.027 417.994 330.745C417.989 330.734 417.986 330.723 417.986 330.712C417.986 330.701 417.989 330.689 417.994 330.679C417.994 329.868 417.994 329.077 418.024 328.301L419.167 328.26L421.222 328.19H421.408C421.408 328.19 421.459 327.998 421.574 327.686C421.846 326.908 422.217 326.167 422.677 325.484C423.554 324.189 424.924 322.919 426.983 322.833C428.122 322.788 429.884 321.865 431.874 320.505C431.887 320.508 431.901 320.508 431.914 320.505C437.267 316.882 444.343 310.194 446.061 309.096C448.423 307.584 459.734 297.506 459.734 297.506C459.734 297.506 461.421 295.369 463.219 292.794L463.285 292.703C465.521 289.478 467.898 285.623 467.314 284.408C466.306 282.232 467.989 277.026 467.989 277.026C473.241 267.406 467.676 254.657 465.309 251.467ZM367.923 96.4688C367.972 96.6192 368.002 96.7748 368.014 96.9324C367.888 96.7661 367.762 96.5897 367.636 96.4284L367.515 96.2672L367.43 96.1462L367.621 95.8842C367.621 95.8842 367.621 95.8842 367.621 95.9195C367.754 96.0828 367.856 96.2689 367.923 96.4688ZM366.231 92.004C365.682 92.1148 365.249 92.2156 364.967 92.2912C364.609 91.6562 364.267 91.0213 363.96 90.3763C364.767 90.845 365.528 91.39 366.231 92.004ZM365.284 92.8002C365.283 92.7901 365.283 92.7799 365.284 92.7699L365.325 92.8002C365.531 92.9362 365.733 93.0672 365.919 93.2033C366.085 93.3242 366.236 93.4401 366.387 93.5611C366.286 93.7375 366.176 93.9189 366.065 94.065C365.889 93.7878 365.722 93.5208 365.561 93.2436C365.461 93.1328 365.37 92.9816 365.284 92.8002ZM362.263 86.5817C363.236 86.4856 364.216 86.4856 365.189 86.5817C365.325 86.5817 365.445 86.6069 365.566 86.627C365.839 86.6693 366.108 86.7385 366.367 86.8337C366.962 87.6668 367.329 88.6416 367.43 89.6607L367.158 89.701L366.891 89.7514C366.387 89.8371 365.884 89.9227 365.491 90.0034L364.987 90.1092C364.317 90.2553 363.93 90.3662 363.914 90.3712C363.849 90.2352 363.783 90.1092 363.713 89.9782C363.602 89.7615 363.486 89.5397 363.386 89.3231C363.285 89.1064 363.154 88.8594 363.048 88.6327C362.978 88.5117 362.927 88.3908 362.872 88.2799C362.872 88.2295 362.822 88.1892 362.801 88.1388C362.772 88.0854 362.747 88.0298 362.726 87.9725C362.419 87.3477 362.137 86.7228 361.865 86.108C361.834 86.0475 361.809 85.982 361.784 85.9215L362.167 85.8963V86.0274L362.263 86.5817ZM242.103 399.188C242.062 391.685 241.518 383.566 240.007 375.947C239.363 372.707 238.698 369.466 238.023 366.282C237.852 365.485 237.686 364.699 237.52 363.913L235.968 364.12H235.827C231.597 344.159 227.175 326.572 227.175 326.572C227.175 326.572 218.392 293.016 219.409 290.34C219.54 289.992 219.374 289.055 219.001 287.679C216.876 280.049 208.002 259.026 204.9 251.84C204.9 251.809 204.875 251.774 204.864 251.749C204.361 250.545 203.998 249.733 203.887 249.496L204.618 238.773L204.658 238.128L204.754 236.757L204.713 236.722L204.754 236.087C204.754 236.087 197.089 229.798 184.105 225.257C183.601 225.076 183.068 224.9 182.539 224.728C183.188 220.39 184.05 215.491 185.173 210.719C185.279 210.24 185.394 209.777 185.515 209.308C185.621 208.84 185.742 208.386 185.863 207.927C186.054 207.182 186.261 206.446 186.472 205.72C187.172 205.498 187.862 205.252 188.542 204.99L188.804 204.889C197.18 201.628 204.091 195.44 208.257 187.472C212.424 179.504 213.564 170.296 211.467 161.551C210.271 156.592 208.063 151.933 204.98 147.869C204.749 147.557 204.502 147.244 204.255 146.937C204.008 146.63 203.711 146.287 203.434 145.975C204.89 142.664 206.607 139.514 206.748 136.294C206.773 135.886 206.773 135.477 206.748 135.07V135.019C206.562 132.948 205.645 130.852 203.51 128.65C200.392 125.419 195.955 123.782 191.518 122.995C187.081 122.209 182.559 122.189 178.097 121.66C170.699 120.773 163.492 118.49 156.093 117.79C146.981 116.946 137.806 118.509 129.487 122.325C123.982 124.845 118.407 129.249 118.075 135.291C117.803 140.285 121.278 145.073 120.401 150.006C119.53 154.854 114.595 158.669 115.028 163.572C115.194 165.487 116.176 167.2 117.405 168.727C117.828 169.231 118.276 169.735 118.74 170.239C120.532 172.139 122.507 173.963 123.509 176.356C123.549 176.457 123.589 176.558 123.625 176.659C124.476 179.022 124.093 182.01 121.988 183.366C122 183.375 122.008 183.387 122.013 183.401C122.043 183.442 122.074 183.472 122.099 183.512C122.102 183.504 122.102 183.495 122.099 183.487C122.845 184.372 123.851 185 124.974 185.281L125.402 185.412C125.055 185.79 124.728 186.183 124.395 186.596L124.179 186.883C123.624 187.63 123.119 188.413 122.668 189.227C122.411 189.68 122.164 190.134 121.958 190.587C121.267 191.97 120.768 193.439 120.472 194.956C119.933 198.292 120.694 201.769 119.878 205.035C118.87 209.066 115.683 212.16 113.885 215.905C110.48 222.96 112.409 231.239 113.094 239.03C114.026 249.612 112.515 260.24 111.009 270.752C110.21 276.342 109.411 281.938 108.612 287.538C106.597 301.594 104.583 315.65 102.568 329.707C101.833 334.857 100.962 340.289 97.5319 344.265H97.5671C97.5671 344.265 97.5671 344.295 97.5319 344.305C98.5614 344.756 99.6564 345.038 100.775 345.142C105.252 345.59 109.997 343.423 114.026 341.055C117.216 339.21 120.238 337.087 123.056 334.711C122.643 336.222 122.199 337.87 121.726 339.644C121.728 339.661 121.728 339.678 121.726 339.694C116.04 361.363 106.894 401.088 106.894 401.088C106.894 401.088 106.063 402.816 104.986 405.391H247.008C245.346 403.376 243.8 401.446 242.591 399.889L242.103 399.188ZM136.946 198.826C136.981 198.766 137.006 198.711 137.041 198.655C137.041 198.816 137.041 198.973 137.041 199.124C137.041 199.275 137.041 199.411 137.041 199.552C137.041 199.693 137.041 199.678 137.041 199.749C137.041 199.819 137.041 199.749 137.041 199.749C137.041 199.955 136.996 200.162 136.961 200.369C136.961 200.369 136.961 200.394 136.961 200.414L137.464 200.6L138.049 200.842C141.5 202.206 144.995 203.441 148.534 204.546C148.897 204.662 149.264 204.773 149.632 204.879L149.707 205.504C149.798 206.144 149.884 206.794 149.964 207.444C149.964 207.444 149.964 207.474 149.964 207.494C150.191 209.293 150.413 211.087 150.609 212.841C150.609 212.841 141.362 209.313 141.478 214.67C141.473 214.766 141.473 214.862 141.478 214.957C141.468 215.085 141.468 215.213 141.478 215.34C141.564 219.513 142.868 221.987 143.13 223.257C143.114 223.309 143.087 223.358 143.05 223.398C142.826 223.884 142.749 224.426 142.828 224.955C142.819 225.857 142.89 226.757 143.039 227.646C142.767 227.812 142.501 227.979 142.234 228.15C142.032 228.276 141.841 228.417 141.644 228.558C140.409 224.27 138.793 220.101 136.815 216.101C135.43 213.249 133.873 210.276 133.889 207.146C133.889 206.945 133.889 206.738 133.914 206.532C133.97 205.625 134.143 204.729 134.427 203.866C134.543 203.538 134.669 203.216 134.81 202.898C135.139 202.144 135.507 201.407 135.913 200.691C136.175 200.217 136.452 199.749 136.719 199.275C136.805 199.134 136.885 198.988 136.966 198.847L136.946 198.826ZM363.073 88.6327C363.003 88.5117 362.953 88.3908 362.897 88.2799C362.897 88.2295 362.847 88.1892 362.827 88.1388C362.717 88.1906 362.604 88.2361 362.489 88.2749C362.268 88.3606 362.041 88.4412 361.809 88.5067C361.578 88.5722 361.482 88.6075 361.306 88.6478L360.857 88.7637L360.898 88.8544C361.084 88.8141 361.265 88.7788 361.452 88.7284L361.502 89.3533C361.714 89.3533 361.91 89.3231 362.101 89.3231H362.373C362.766 89.3231 363.109 89.3231 363.381 89.3231C363.275 89.0963 363.164 88.8594 363.073 88.6327Z" fill="url(#paint1_linear_4_6)"/>
<path d="M253.031 162.65L250.01 163.985C250.01 163.985 230.313 240.552 230.313 246.74C230.313 252.928 272.078 287.362 272.078 287.362L278.595 243.348C278.595 243.348 269.238 142.417 253.031 162.65Z" fill="#E8F5FF"/>
<path d="M344.646 138.295L327.195 129.184C326.218 125.014 324.483 121.06 322.078 117.518C319.525 113.829 316.13 110.206 311.9 108.316C301.208 103.519 357.125 78.3374 357.125 78.3374C358.006 81.3624 359.043 84.3396 360.233 87.2569C363.114 94.3724 367.893 103.574 374.052 106.195C384.523 110.654 344.646 138.295 344.646 138.295Z" fill="#FFB0B1"/>
<path opacity="0.1" d="M360.233 87.2569C357.844 95.6649 352.875 103.109 346.029 108.539C339.183 113.969 330.805 117.11 322.078 117.518C319.525 113.829 316.13 110.206 311.9 108.316C301.208 103.519 357.125 78.3374 357.125 78.3374C358.006 81.3624 359.043 84.3396 360.233 87.2569Z" fill="black"/>
<path d="M361.804 74.5429C361.806 82.789 359.364 90.8505 354.787 97.7078C350.21 104.565 343.703 109.91 336.09 113.067C328.476 116.224 320.098 117.051 312.015 115.443C303.932 113.835 296.507 109.864 290.68 104.034C284.852 98.2034 280.883 90.7745 279.275 82.6869C277.667 74.5992 278.492 66.2161 281.646 58.5977C284.8 50.9794 290.141 44.4681 296.994 39.8873C303.847 35.3065 311.903 32.862 320.144 32.863C325.622 32.8377 331.05 33.8984 336.116 35.984C341.181 38.0695 345.784 41.1386 349.657 45.0139C353.531 48.8893 356.598 53.494 358.683 58.5624C360.768 63.6307 361.829 69.0621 361.804 74.5429Z" fill="#FFB0B1"/>
<path d="M367.817 132.943L356.456 159.47L346.434 177.077H314.353L304.995 153.004L308.788 128.04H333.289L349.108 127.148L354.451 125.364L357.896 127.319L367.817 132.943Z" fill="#575A89"/>
<path opacity="0.1" d="M363.904 97.5824C363.904 97.5824 370.99 99.0942 364.645 104.3C358.299 109.505 336.406 126.059 336.406 126.059C336.406 126.059 344.097 132.913 342.505 140.94L367.984 126.73L372.516 103.992C372.516 103.992 373.025 97.1591 363.904 97.5824Z" fill="black"/>
<path opacity="0.1" d="M341.417 126.059L325.211 128.735C325.211 128.735 328.555 141.107 326.883 144.619C326.832 144.728 326.79 144.841 326.757 144.957L320.144 162.841L325.1 176.886L342.253 153.478L336.406 144.619C336.406 144.619 342.586 136.425 346.262 133.583C349.939 130.741 341.417 126.059 341.417 126.059Z" fill="black"/>
<path d="M341.417 125.369L325.211 128.04C325.211 128.04 328.555 140.411 326.883 143.924C326.832 144.033 326.79 144.146 326.757 144.261L320.144 162.146L325.1 176.19L342.253 152.768L336.406 143.908C336.406 143.908 342.586 135.715 346.262 132.872C349.939 130.03 341.417 125.369 341.417 125.369Z" fill="#DCE6F2"/>
<path d="M364.584 96.247C364.584 96.247 371.67 97.7588 365.32 102.964C358.969 108.17 336.406 126.059 336.406 126.059C336.406 126.059 344.762 131.577 343.175 139.6L368.654 125.394L373.186 102.657C373.186 102.657 373.69 95.8237 364.584 96.247Z" fill="#575A89"/>
<path opacity="0.1" d="M323.191 119.095C323.191 119.095 324.738 121.988 331.562 127.203C331.562 127.203 320.2 133.25 324.546 141.752L307.166 137.216L304.492 128.856L323.191 119.095Z" fill="black"/>
<path d="M322.521 118.43C322.521 118.43 324.067 121.322 330.892 126.538C330.892 126.538 319.53 132.555 323.876 141.081L306.501 136.546L303.827 128.191L322.521 118.43Z" fill="#575A89"/>
<path opacity="0.1" d="M367.817 132.943L356.456 159.47L346.454 177.077H314.353L304.995 153.004L308.783 128.04H315.597C315.486 133.865 317.611 140.709 317.475 143.253C317.243 147.436 323.71 170.002 323.71 170.002C323.71 170.002 337.242 148.101 342.586 146.151C345.945 144.926 353.061 134.737 357.891 127.319L367.817 132.943Z" fill="black"/>
<path d="M412.575 272.536L411.421 273.987C411.421 273.987 419.777 315.949 417.465 325.479C417.072 327.196 416.848 328.948 416.795 330.709V330.785C416.387 340.481 419.313 353.064 419.313 353.064C419.313 353.064 421.65 390.153 420.32 405.407H263.884C262.968 382.851 261.981 353.628 262.877 350.388C264.388 345.041 267.41 325.645 267.41 325.645L267.742 316.453C267.742 316.453 267.742 307.569 268.014 297.672C268.13 293.222 268.301 288.551 268.548 284.409C268.865 279.198 269.308 274.809 269.918 272.652C270.293 271.017 270.509 269.35 270.562 267.673C270.562 267.517 270.562 267.356 270.593 267.194C270.593 266.69 270.643 266.146 270.663 265.587C270.663 265.431 270.663 265.274 270.663 265.083C270.759 261.838 270.724 257.988 270.618 253.997C270.618 253.78 270.618 253.558 270.618 253.336C270.532 250.343 270.406 247.289 270.265 244.387C269.827 235.316 269.258 227.646 269.258 227.646L250.045 163.95L255.222 151.19L269.59 142.382L296.157 126.332C309.115 115.673 317.646 116.953 320.9 118.123C321.216 118.23 321.525 118.357 321.826 118.501C321.927 118.551 322.008 118.591 322.083 118.637C322.187 118.686 322.286 118.743 322.38 118.808C321.49 119.237 320.716 119.875 320.124 120.667C319.458 121.569 318.983 122.598 318.729 123.691C318.559 124.368 318.439 125.057 318.372 125.752C318.306 126.483 318.281 127.239 318.281 128C318.317 129.668 318.46 131.333 318.709 132.983C318.709 133.014 318.709 133.054 318.709 133.094C318.875 134.273 319.082 135.427 319.283 136.511C319.281 136.529 319.281 136.548 319.283 136.566C319.515 137.831 319.747 139 319.903 140.008C319.933 140.19 319.958 140.356 319.983 140.512C320.094 141.178 320.146 141.853 320.139 142.528C320.196 144.158 320.415 145.779 320.794 147.365C320.925 148.031 321.076 148.741 321.242 149.482C321.469 150.49 321.716 151.588 321.983 152.707C322.129 153.322 322.285 153.957 322.446 154.587C322.506 154.839 322.572 155.091 322.632 155.348L322.733 155.746C323.806 160.014 324.969 164.262 325.684 166.832C326.107 168.344 326.374 169.276 326.374 169.276C326.374 169.276 333.959 157.006 340.012 150.021C340.103 149.92 340.184 149.825 340.269 149.734C340.869 149.044 341.458 148.414 342.022 147.859C343.256 146.63 344.364 145.753 345.255 145.43C345.445 145.361 345.629 145.275 345.804 145.173C348.282 143.767 352.281 138.663 356.023 133.316C356.39 132.812 356.748 132.263 357.11 131.744C357.941 130.544 358.747 129.34 359.508 128.186C360.092 127.304 360.651 126.447 361.18 125.631C363.698 121.711 365.471 118.788 365.471 118.788L368.966 118.632L369.575 118.601H369.983L385.852 117.866C385.852 117.866 386.537 117.981 387.665 118.208C387.726 118.208 387.786 118.208 387.852 118.249C393.482 119.367 409.125 122.91 410.082 127.823C411.25 133.84 436.482 141.868 436.482 141.868C436.814 145.899 442.994 148.555 442.994 148.555C442.994 148.555 452.351 173.298 449.848 182.993C447.375 192.568 456.284 216.252 456.521 216.918L454.814 219.074L412.575 272.536Z" fill="#E8F5FF"/>
<path opacity="0.1" d="M363.899 95.8238C363.899 95.8238 379.345 91.4396 382.856 100.465C386.366 109.49 394.218 145.939 394.218 145.939C394.218 145.939 373.831 149.784 368.487 145.939C365.353 143.657 361.474 142.642 357.624 143.097L346.096 150.953L342.692 149.946C342.692 149.946 361.134 122.512 365.143 113.189C369.152 103.866 370.507 99.699 363.899 95.8238Z" fill="black"/>
<path d="M363.23 93.808C363.23 93.808 378.686 89.4239 382.211 98.4492C385.737 107.475 393.573 143.924 393.573 143.924C393.573 143.924 373.191 147.769 367.843 143.924C364.71 141.642 360.833 140.626 356.985 141.081L345.447 148.938L342.042 147.93C342.042 147.93 360.485 120.496 364.494 111.173C368.502 101.851 369.837 97.6933 363.23 93.808Z" fill="#E8F5FF"/>
<path opacity="0.1" d="M259.548 239.216C259.548 239.216 271.076 242.058 273.252 248.579C275.428 255.1 264.731 255.266 264.731 255.266C264.731 255.266 258.214 243.731 259.548 239.216Z" fill="black"/>
<path opacity="0.1" d="M302.487 287.362C302.487 287.362 274.254 345.207 280.771 350.725C287.288 356.243 302.487 287.362 302.487 287.362Z" fill="black"/>
<path opacity="0.1" d="M341.417 244.734C341.417 244.734 363.975 300.922 359.462 309.6C354.95 318.278 369.152 309.6 369.152 309.6L341.417 244.734Z" fill="black"/>
<path d="M370.689 300C370.689 300 297.57 303.656 318.9 327.248C340.229 350.841 384 328.25 384 328.25L370.689 300Z" fill="#FFB0B1"/>
<path opacity="0.1" d="M361.804 74.5428C361.811 80.0105 360.738 85.4256 358.647 90.477C357.947 90.5576 357.247 90.608 356.572 90.6382C355.564 88.426 356.103 85.8711 356.123 83.4371C356.144 81.0031 355.247 78.1408 352.905 77.4857C348.237 76.1705 345.013 84.9035 340.41 83.3262C336.885 82.1269 337.807 76.7752 335.777 73.6861C334.17 71.2421 330.952 70.5517 328.449 69.0197C323.126 65.7492 323.287 60.5185 320.814 55.5699C318.226 50.3845 312.756 51.9164 308.007 54.9753C304.401 57.3034 301.289 60.4227 297.431 62.2772C294.092 63.8897 290.34 64.4743 286.638 64.56C284.359 64.6483 282.08 64.4073 279.87 63.8444C282.469 54.0651 288.535 45.5658 296.935 39.9314C305.336 34.297 315.498 31.9121 325.526 33.2216C335.554 34.5311 344.764 39.4455 351.438 47.0484C358.112 54.6512 361.795 64.4235 361.799 74.5428H361.804Z" fill="black"/>
<path d="M308.022 53.64C304.411 55.9681 301.304 59.0824 297.446 60.9469C294.107 62.5545 290.355 63.139 286.653 63.2247C282.121 63.3255 277.241 62.5293 274.143 59.2537C271.298 56.2302 270.618 51.5789 271.822 47.613C273.025 43.6471 275.911 40.3565 279.3 37.9729C282.69 35.5893 286.623 33.9415 288.869 30.5299C290.058 28.7258 290.632 26.5992 291.619 24.6793C294.777 18.5364 301.878 15.2105 308.742 14.7973C315.607 14.384 322.411 16.43 328.948 18.6473C335.485 20.8646 342.072 23.3036 348.972 23.7621C352.044 23.9536 355.237 23.7621 358.088 24.9262C361.92 26.4833 364.433 30.2074 366.146 33.9969C368.064 38.2702 369.258 42.9366 369.057 47.6029C368.634 57.5656 362.056 67.3418 364.947 76.8862C365.713 79.431 367.148 82.0414 366.382 84.5862C365.264 88.3001 360.475 89.1467 356.602 89.3231C355.595 87.1109 356.134 84.5509 356.154 82.122C356.174 79.6931 355.277 76.8257 352.941 76.1706C348.267 74.8654 345.044 83.5834 340.451 82.0111C336.951 80.8067 337.857 75.4601 335.822 72.371C334.216 69.9219 330.993 69.2366 328.495 67.7046C323.171 64.4341 323.332 59.2034 320.86 54.2548C318.251 49.0442 312.776 50.5761 308.022 53.64Z" fill="#575A89"/>
<path d="M234.145 245.399L230.303 246.74C230.303 246.74 231.813 269.477 226.777 275.998C221.741 282.519 243.316 298.73 243.316 298.73C243.316 298.73 272.889 298.564 273.725 296.21C274.561 293.857 272.214 254.082 272.214 254.082C272.214 254.082 256.34 247.894 257.675 238.032C257.675 238.032 252.83 261.268 245.648 260.265C238.466 259.263 230.313 253.261 234.145 245.399Z" fill="#E8F5FF"/>
<path opacity="0.1" d="M246.963 267.3C252.562 267.3 257.101 263.147 257.101 258.023C257.101 252.899 252.562 248.746 246.963 248.746C241.364 248.746 236.825 252.899 236.825 258.023C236.825 263.147 241.364 267.3 246.963 267.3Z" fill="black"/>
<path d="M258.047 246.07C258.047 246.07 256.033 184.55 238.497 198.257C220.961 211.964 220.789 228.357 224.128 233.199C227.467 238.042 238.174 262.286 238.174 262.286C239.849 263.257 241.73 263.818 243.663 263.921C245.596 264.025 247.526 263.669 249.295 262.882C251.064 262.095 252.621 260.901 253.84 259.396C255.058 257.89 255.903 256.118 256.305 254.223L258.047 246.07Z" fill="#FFB0B1"/>
<path opacity="0.1" d="M367.44 90.2402C367.358 89.9699 367.201 89.7286 366.986 89.5448C366.12 88.7536 364.257 88.4764 361.447 88.7183L361.562 90.0487C365.309 89.7262 366.05 90.472 366.145 90.598V90.724L366.261 90.8903C366.728 91.5185 367.059 92.2375 367.233 93.0011C367.406 93.7648 367.418 94.5562 367.268 95.3248C366.448 99.4318 361.406 102.702 361.356 102.738L361.235 102.808L361.16 102.924C358.984 106.154 346.68 115.27 343.462 117.629L343.18 117.306C341.74 118.556 329.079 129.647 328.394 133.895C327.95 136.561 324.949 137.594 323.861 137.882C322.713 137.01 318.986 134.042 317.047 130.716C315.229 127.586 322.547 121.479 323.191 119.095L322.184 118.062C322.078 118.445 312.681 127.234 315.294 131.724C317.389 135.327 321.217 138.411 322.557 139.429C322.129 143.319 319.464 166.162 315.37 171.574C310.283 178.302 306.008 212.206 306.481 224.043C306.899 234.56 304.154 254.425 294.988 262.956C293.401 264.498 291.487 265.661 289.388 266.359C287.289 267.057 285.059 267.272 282.866 266.988H282.755H282.644C282.513 266.988 269.218 268.348 258.047 258.925C248.907 251.23 243.729 238.672 242.652 221.589H242.43L242.339 216.615C244.818 216.228 247.05 214.895 248.566 212.896C250.083 210.897 250.766 208.387 250.472 205.894C250.179 203.402 248.931 201.12 246.991 199.529C245.051 197.937 242.57 197.16 240.07 197.361C237.569 197.561 235.244 198.724 233.582 200.604C231.92 202.484 231.052 204.935 231.158 207.443C231.265 209.951 232.339 212.319 234.154 214.051C235.97 215.783 238.385 216.744 240.894 216.731H241.005L241.095 221.675L240.652 221.705C241.76 239.342 247.199 252.389 256.768 260.447C264.041 266.477 273.331 269.519 282.76 268.958C283.429 269.031 284.102 269.068 284.775 269.069C289.097 269.091 293.255 267.418 296.358 264.408C306.013 255.413 308.949 234.817 308.49 223.942C307.987 211.399 312.474 178.715 316.976 172.763C321.388 166.923 324.062 144.165 324.531 139.756C326.127 139.308 329.738 137.892 330.353 134.213C330.796 131.552 339.252 123.353 344.454 118.813L344.298 118.631C347.098 116.586 355.806 110.135 360.122 105.993C361.462 104.708 362.791 103.423 364.181 102.198C365.853 100.717 367.979 98.3635 368.538 95.5818C368.728 94.6636 368.729 93.7161 368.54 92.7975C368.352 91.8789 367.977 91.0086 367.44 90.2402Z" fill="black"/>
<path d="M322.386 139.111C322.174 138.965 317.158 135.372 314.645 131.048C312.036 126.558 321.434 117.775 321.534 117.392L322.542 118.425C321.902 120.803 314.584 126.916 316.403 130.04C318.694 133.986 323.519 137.438 323.569 137.473L322.386 139.111Z" fill="#353146"/>
<path d="M342.808 118.606L342.022 117.523C342.183 117.407 358.002 105.958 360.495 102.254L360.575 102.143L360.691 102.067C360.742 102.032 365.783 98.7667 366.604 94.6547C366.755 93.8869 366.744 93.0959 366.57 92.3329C366.397 91.5699 366.065 90.8518 365.597 90.2252L365.481 90.0538V89.9329C365.38 89.8019 364.64 89.0611 360.893 89.3836L360.777 88.0482C363.592 87.8063 365.451 88.0835 366.317 88.8746C366.532 89.0603 366.691 89.3031 366.775 89.5751C367.32 90.3413 367.702 91.211 367.897 92.1305C368.093 93.0501 368.099 94 367.913 94.9218C367.354 97.7085 365.234 100.062 363.557 101.538C362.172 102.763 360.837 104.058 359.503 105.333C354.441 110.186 343.362 118.208 342.808 118.606Z" fill="#E8F5FF"/>
<path d="M241.689 214.861L240.355 214.885L240.504 223.002L241.838 222.978L241.689 214.861Z" fill="#E8F5FF"/>
<path d="M240.244 216.091C245.626 216.091 249.989 211.725 249.989 206.34C249.989 200.955 245.626 196.589 240.244 196.589C234.862 196.589 230.499 200.955 230.499 206.34C230.499 211.725 234.862 216.091 240.244 216.091Z" fill="#587EEC"/>
<path d="M248.125 208.206C249.154 203.856 246.461 199.495 242.109 198.465C237.757 197.434 233.394 200.125 232.364 204.474C231.334 208.824 234.027 213.185 238.379 214.216C242.732 215.246 247.095 212.555 248.125 208.206Z" fill="#E8F5FF"/>
<path d="M284.14 268.419C283.467 268.42 282.795 268.385 282.126 268.313C272.697 268.869 263.409 265.827 256.134 259.802C246.565 251.739 241.136 238.707 240.018 221.055L242.032 220.929C243.11 238.012 248.287 250.575 257.433 258.265C268.603 267.663 281.894 266.328 282.025 266.328H282.136H282.247C284.441 266.611 286.671 266.395 288.77 265.697C290.87 264.999 292.785 263.837 294.374 262.296C303.535 253.765 306.28 233.9 305.862 223.383C305.358 211.536 309.634 177.631 314.725 170.909C319.182 165.018 321.947 138.466 321.978 138.199L322.053 137.443L322.798 137.312C322.844 137.312 327.195 136.486 327.739 133.23C328.444 128.987 341.085 117.896 342.52 116.641L343.835 118.153C338.612 122.688 330.156 130.892 329.733 133.558C329.119 137.247 325.508 138.658 323.916 139.101C323.413 143.515 320.759 166.268 316.362 172.108C311.86 178.06 307.372 210.744 307.876 223.287C308.309 234.162 305.403 254.762 295.749 263.752C292.64 266.77 288.471 268.446 284.14 268.419Z" fill="#353146"/>
<g opacity="0.1">
<path opacity="0.1" d="M366.095 62.63C366.921 59.5762 367.918 56.5022 368.613 53.4081C367.782 56.5173 366.78 59.5762 366.095 62.63Z" fill="black"/>
<path opacity="0.1" d="M357.67 86.627C356.662 84.4148 357.201 81.8549 357.221 79.4259C357.241 76.997 356.345 74.1548 354.008 73.4745C349.335 72.1694 346.111 80.8923 341.518 79.3151C337.993 78.1107 338.925 72.764 336.89 69.6749C335.283 67.2258 332.065 66.5405 329.567 65.0086C324.239 61.7381 324.4 56.5073 321.932 51.5587C319.339 46.3683 313.874 47.9002 309.12 50.9641C305.509 53.2922 302.402 56.4115 298.544 58.271C295.205 59.8786 291.453 60.4631 287.751 60.5488C283.244 60.6546 278.338 59.8534 275.241 56.5778C272.854 54.0582 271.993 50.3644 272.486 46.9024C272.401 47.1393 272.325 47.3761 272.25 47.613C271.041 51.5789 271.746 56.2402 274.571 59.2537C277.669 62.5292 282.574 63.3254 287.081 63.2246C290.788 63.139 294.535 62.5544 297.879 60.9469C301.747 59.0824 304.854 55.9681 308.455 53.6399C313.209 50.5761 318.679 49.0441 321.267 54.2346C323.735 59.1832 323.579 64.4139 328.902 67.6844C331.421 69.1962 334.619 69.9017 336.23 72.3508C338.245 75.4499 337.353 80.7865 340.859 81.9909C345.447 83.5632 348.67 74.8452 353.343 76.1504C355.68 76.8055 356.582 79.6779 356.557 82.1018C356.531 84.5257 356.008 87.0907 357.005 89.3029C360.878 89.1265 365.667 88.295 366.79 84.566C366.945 84.0308 367.016 83.475 367.002 82.9181C365.365 85.7452 361.155 86.4708 357.67 86.627Z" fill="black"/>
</g>
<path opacity="0.1" d="M448.69 210.795L454.537 216.983C454.537 216.983 459.216 251.084 461.552 254.274C463.889 257.464 469.409 270.152 464.227 279.682C464.227 279.682 462.555 284.867 463.557 287.039C464.559 289.211 456.043 300.081 456.043 300.081C456.043 300.081 444.847 310.109 442.505 311.616C440.163 313.122 427.804 325.156 423.629 325.322C419.454 325.489 418.09 330.674 418.09 330.674L394.53 331.511C394.53 331.511 381.516 330.83 378.686 332.67C378.686 332.67 380.197 312.775 365.657 299.733L384.201 293.046C384.201 293.046 391.221 290.022 393.392 286.863C394.757 284.926 396.694 283.465 398.932 282.685C398.932 282.685 404.109 279.006 404.275 277.001C404.441 274.995 410.606 272.536 410.606 272.536L407.116 242.729L408.954 193.243C408.954 193.243 414.801 151.78 427.165 154.123C439.529 156.466 448.69 210.795 448.69 210.795Z" fill="black"/>
<path d="M450.704 210.795L456.551 216.983C456.551 216.983 461.23 251.084 463.567 254.274C465.904 257.464 471.423 270.152 466.241 279.682C466.241 279.682 464.574 284.867 465.576 287.039C466.578 289.211 458.057 300.081 458.057 300.081C458.057 300.081 446.862 310.109 444.52 311.616C442.178 313.122 429.819 325.156 425.644 325.322C421.469 325.489 420.104 330.674 420.104 330.674L396.544 331.511C396.544 331.511 383.521 330.83 380.7 332.67C380.7 332.67 382.211 312.775 367.672 299.733L386.215 293.046C386.215 293.046 393.236 290.022 395.406 286.863C396.772 284.926 398.709 283.465 400.946 282.685C400.946 282.685 406.123 279.006 406.289 277.001C406.456 274.995 412.62 272.536 412.62 272.536L409.13 242.729L410.968 193.243C410.968 193.243 416.815 151.78 429.179 154.123C441.543 156.466 450.704 210.795 450.704 210.795Z" fill="#E8F5FF"/>
<path opacity="0.1" d="M428.968 260.784C428.968 260.784 446.177 256.249 450.689 261.792C455.202 267.336 428.968 260.784 428.968 260.784Z" fill="black"/>
<path opacity="0.1" d="M424.959 268.389C430.806 272.486 448.851 272.652 448.851 272.652L424.959 268.389Z" fill="black"/>
<path opacity="0.1" d="M433.813 288.868C434.316 289.035 446.217 301.744 451.213 297.899C456.209 294.054 433.813 288.868 433.813 288.868Z" fill="black"/>
<path opacity="0.1" d="M273.539 182.207C273.539 182.207 277.034 206.285 275.312 216.091C273.589 225.898 279.875 238.047 279.875 238.047L273.539 182.207Z" fill="black"/>
<path d="M196.162 191.998C192.133 195.158 189.192 202.636 187.061 210.855C183.345 225.192 182.131 241.817 182.131 241.817C182.131 241.817 150.05 234.459 152.387 231.118C153.857 229.017 151.883 213.183 150.236 201.704C149.254 194.921 148.378 189.655 148.378 189.655C148.378 189.655 207.191 183.301 196.162 191.998Z" fill="#FFB0B1"/>
<path opacity="0.1" d="M196.162 191.328C192.133 194.493 189.192 201.966 187.061 210.185C180.67 212.127 173.872 212.302 167.389 210.692C160.905 209.082 154.979 205.746 150.236 201.039C149.254 194.251 148.378 188.985 148.378 188.985C148.378 188.985 207.191 182.635 196.162 191.328Z" fill="black"/>
<path d="M213.406 173.318C213.409 182.083 210.314 190.566 204.667 197.267C199.02 203.967 191.186 208.453 182.552 209.93C173.917 211.407 165.039 209.78 157.488 205.337C149.938 200.894 144.201 193.921 141.294 185.653C138.388 177.385 138.498 168.354 141.605 160.159C144.713 151.965 150.618 145.134 158.275 140.877C165.932 136.619 174.847 135.21 183.443 136.897C192.038 138.584 199.76 143.26 205.242 150.097C210.525 156.682 213.404 164.873 213.406 173.318Z" fill="#FFB0B1"/>
<path opacity="0.1" d="M242.656 405.407H232.08L231.189 386.716L230.257 367.37C230.257 367.37 232.659 367.012 236.487 366.478L238.033 366.271H238.159C238.995 370.197 239.821 374.229 240.617 378.255C241.941 385.403 242.631 392.654 242.677 399.924C242.677 400.428 242.677 400.932 242.677 401.405C242.707 402.751 242.677 404.096 242.656 405.407Z" fill="black"/>
<path d="M240.627 405.407H107.992C108.566 404.101 108.949 403.31 108.949 403.31C108.949 403.31 119.56 356.858 124.954 337.205C124.956 337.188 124.956 337.171 124.954 337.155C125.628 334.485 126.442 331.852 127.392 329.268C127.453 329.092 127.533 328.924 127.629 328.764C130.298 324.42 133.642 319.739 128.963 313.052C124.284 306.365 125.941 276.94 125.941 276.94C125.941 276.94 131.622 251.86 137.636 238.486C138.548 236.414 139.843 234.533 141.453 232.942C141.976 232.43 142.535 231.955 143.125 231.521C143.574 231.184 144.041 230.873 144.525 230.589L144.621 230.529C147.147 229.096 149.952 228.224 152.845 227.974C154.9 227.759 156.975 227.816 159.014 228.145C168.765 229.576 176.571 231.97 182.776 234.696C199.592 242.089 204.683 251.996 204.784 252.203L204.824 252.288C205.499 253.865 215.37 276.925 218.926 287.684C219.847 290.486 220.351 292.456 220.15 292.995C219.142 295.666 227.835 329.102 227.835 329.102C227.835 329.102 231.864 345.228 235.893 364.13C236.069 364.916 236.235 365.702 236.396 366.498C237.117 369.93 237.832 373.427 238.522 376.92C239.859 384.117 240.548 391.419 240.582 398.74C240.656 401.021 240.671 403.243 240.627 405.407Z" fill="#EB5569"/>
<path opacity="0.1" d="M152.054 216.474C152.054 216.474 142.904 212.947 143.014 218.298C143.125 223.65 145.245 226.21 144.576 226.991C143.906 227.772 144.908 232.454 144.908 232.454C144.908 232.454 157.272 232.454 162.953 235.014C168.634 237.574 189.574 242.703 192.249 244.266C194.923 245.828 204.839 252.832 204.839 252.832L205.731 239.569C205.731 239.569 195.482 231.098 178.666 226.754C161.85 222.41 152.054 216.474 152.054 216.474Z" fill="black"/>
<path d="M152.054 215.804C152.054 215.804 142.904 212.276 143.014 217.628C143.125 222.98 145.245 225.54 144.576 226.321C143.906 227.102 144.908 231.783 144.908 231.783C144.908 231.783 157.272 231.783 162.953 234.348C168.634 236.913 189.574 242.038 192.249 243.595C194.923 245.153 204.839 252.162 204.839 252.162L205.741 238.939C205.741 238.939 195.492 230.468 178.676 226.124C161.86 221.78 152.054 215.804 152.054 215.804Z" fill="#EB5569"/>
<path opacity="0.1" d="M179.678 247.723C179.678 247.723 197.164 266.665 196.273 271.911C195.381 277.157 179.678 247.723 179.678 247.723Z" fill="black"/>
<path opacity="0.1" d="M151.274 316.151C151.274 316.151 138.457 327.968 134.679 328.638C130.902 329.309 137.575 331.536 141.916 329.757C146.258 327.978 155.514 323.297 155.514 323.297L151.274 316.151Z" fill="black"/>
<path d="M245.834 405.407H215.944C211.764 401.778 207.811 398.417 205.292 396.396C201.263 393.161 198.358 388.399 196.504 384.569C196.086 383.697 195.724 382.881 195.416 382.14C194.866 380.864 194.382 379.561 193.966 378.235L216.1 365.082C217.324 366.123 218.473 367.248 219.54 368.449L219.807 368.756C221.036 370.207 222.119 371.855 222.214 373.206C222.325 374.778 226.697 380.86 231.164 386.701C235.696 392.642 240.34 398.321 240.647 398.704C240.647 398.704 241.412 399.748 242.661 401.35C243.543 402.509 244.631 403.9 245.834 405.407Z" fill="#FFB0B1"/>
<path opacity="0.1" d="M205.242 150.097C204.18 152.495 203.228 154.985 203.087 157.656C202.689 165.366 203.334 182.605 194.802 186.475C190.577 188.38 186.054 184.198 181.421 184.097C178.087 184.026 175.03 186.143 172.995 188.788C170.961 191.434 169.696 194.573 168.221 197.567C166.878 200.284 165.33 202.895 163.593 205.378C163.073 206.137 162.501 206.86 161.88 207.539C156.678 205.343 152.046 201.987 148.336 197.728C144.626 193.469 141.937 188.419 140.473 182.962C139.01 177.506 138.81 171.787 139.89 166.241C140.97 160.696 143.301 155.47 146.704 150.963C150.108 146.455 154.496 142.784 159.532 140.23C164.568 137.676 170.121 136.306 175.767 136.225C181.413 136.143 187.002 137.352 192.11 139.76C197.218 142.167 201.71 145.71 205.242 150.117V150.097Z" fill="black"/>
<path d="M202.417 156.295C202.014 164.005 202.664 181.244 194.127 185.11C189.902 187.014 185.379 182.837 180.746 182.736C177.412 182.66 174.36 184.782 172.32 187.423C170.281 190.063 169.027 193.208 167.546 196.206C166.202 198.923 164.655 201.534 162.918 204.017C161.88 205.488 160.732 206.965 159.135 207.791C156.355 209.243 152.986 208.426 150.005 207.494C146.137 206.274 142.326 204.9 138.572 203.372C138.658 202.805 138.702 202.232 138.703 201.659C138.592 201.87 138.472 202.067 138.351 202.278L138.114 202.692C137.686 203.447 137.268 204.203 136.885 204.979C136.739 205.277 136.598 205.584 136.472 205.892C135.966 207.035 135.648 208.254 135.53 209.5C135.274 212.861 136.931 216.051 138.401 219.074C144.057 230.77 147.552 244.447 143.296 256.718C141.453 262.054 138.26 266.796 135.928 271.951C131.852 281.082 130.652 291.238 132.489 301.068C133.652 307.176 135.984 313.223 135.41 319.416C134.402 330.074 125.216 338.006 116.015 343.459C111.044 346.392 104.96 349.002 99.6824 346.684C103.047 342.753 103.913 337.316 104.638 332.186C106.622 318.193 108.612 304.194 110.606 290.188C111.402 284.615 112.196 279.042 112.988 273.468C114.469 262.997 115.97 252.409 115.043 241.872C114.368 234.106 112.464 225.862 115.829 218.832C117.606 215.108 120.774 212.024 121.761 208.013C122.572 204.753 121.817 201.286 122.351 197.965C122.643 196.454 123.137 194.989 123.821 193.611C124.692 191.74 125.828 190.006 127.195 188.461C125.846 188.068 124.587 187.528 123.821 186.4C125.987 184.989 126.314 181.809 125.332 179.42C124.35 177.032 122.386 175.212 120.618 173.328C118.85 171.443 117.148 169.246 116.927 166.676C116.498 161.783 121.384 157.993 122.245 153.166C123.116 148.252 119.671 143.475 119.948 138.501C120.271 132.489 125.79 128.12 131.24 125.586C139.463 121.777 148.546 120.212 157.569 121.05C164.912 121.746 172.018 124.018 179.341 124.9C183.758 125.404 188.235 125.455 192.621 126.231C197.008 127.007 201.405 128.644 204.492 131.865C212.63 140.356 202.88 147.345 202.417 156.295Z" fill="#575A89"/>
<path opacity="0.1" d="M195.608 384.574C193.039 383.46 188.366 384.126 180.343 381.682C172.32 379.238 170.774 368.191 170.774 368.191V368.156C170.678 367.904 169.933 366.261 164.887 360.507C159.311 354.152 147.26 322.057 147.26 322.057C147.26 322.057 136.573 310.572 136.91 306.339C137.248 302.106 135.012 290.844 135.233 278.245C135.455 265.647 159.291 257.292 159.291 257.292C205.187 249.154 194.379 302.096 193.155 306.108C191.931 310.119 198.282 320.953 198.282 320.953C197.386 325.67 201.958 332.972 201.958 332.972C201.958 332.972 203.066 339.432 203.293 341.886C203.306 342 203.331 342.111 203.369 342.219C204.104 344.532 210.097 346.628 212.535 347.903C215.098 349.244 223.342 360.945 223.342 360.945C225.12 369.537 198.166 385.703 195.608 384.574Z" fill="black"/>
<path d="M196.943 382.558C194.379 381.44 189.7 382.11 181.683 379.661C173.665 377.212 172.114 366.176 172.114 366.176V366.14C172.023 365.883 171.273 364.246 166.226 358.491C160.651 352.136 148.6 320.036 148.6 320.036C148.6 320.036 137.913 308.557 138.245 304.324C138.577 300.091 136.351 288.828 136.573 276.24C136.795 263.652 160.616 255.302 160.616 255.302C206.511 247.163 195.704 300.106 194.48 304.117C193.256 308.128 199.607 318.963 199.607 318.963C198.71 323.679 203.283 330.981 203.283 330.981C203.283 330.981 204.391 337.442 204.623 339.896C204.631 340.009 204.655 340.121 204.693 340.228C205.429 342.542 211.422 344.638 213.864 345.913C216.423 347.248 224.672 358.954 224.672 358.954C226.46 367.531 199.506 383.697 196.943 382.558Z" fill="#EB5569"/>
<path opacity="0.1" d="M161.523 282.942C161.523 282.942 181.572 304.107 186.805 304.107C192.037 304.107 161.523 282.942 161.523 282.942Z" fill="black"/>
<path d="M196.942 382.558C194.379 381.44 189.7 382.11 181.683 379.661C173.665 377.212 172.114 366.176 172.114 366.176V366.141C177.427 362.613 190.884 352.65 196.187 349.007C199.919 346.452 202.966 342.698 204.749 340.208C205.484 342.521 211.477 344.618 213.92 345.893C216.478 347.228 224.727 358.934 224.727 358.934C226.46 367.531 199.506 383.697 196.942 382.558Z" fill="#FF748E"/>
<g opacity="0.1">
<path opacity="0.1" d="M123.851 186.455C123.876 186.495 123.912 186.531 123.942 186.571C124.093 186.379 124.249 186.188 124.41 186.007C124.239 186.174 124.052 186.324 123.851 186.455Z" fill="black"/>
<path opacity="0.1" d="M135.535 209.555C135.747 206.758 137.243 204.294 138.643 201.835C137.726 201.482 136.81 201.124 135.903 200.752C135.989 200.186 136.033 199.615 136.034 199.043C134.619 201.563 133.078 204.042 132.861 206.879C132.604 210.246 134.261 213.43 135.732 216.454C141.393 228.145 144.883 241.822 140.627 254.097C138.779 259.429 135.591 264.176 133.259 269.331C129.184 278.46 127.986 288.615 129.824 298.443C130.978 304.556 133.314 310.598 132.74 316.791C131.733 327.449 122.552 335.381 113.346 340.828C109.584 343.056 105.187 345.097 100.982 344.95C100.592 345.577 100.158 346.175 99.6824 346.739C104.965 349.073 111.044 346.447 116.015 343.504C125.226 338.062 134.427 330.15 135.435 319.472C136.009 313.279 133.672 307.236 132.514 301.124C130.675 291.297 131.87 281.143 135.938 272.012C138.255 266.862 141.478 262.11 143.306 256.778C147.562 244.503 144.067 230.826 138.411 219.135C136.946 216.091 135.279 212.921 135.535 209.555Z" fill="black"/>
<path opacity="0.1" d="M204.482 131.925C203.986 131.417 203.454 130.945 202.89 130.514C208.994 138.436 200.181 145.168 199.743 153.695C199.35 161.405 199.994 178.649 191.458 182.509C187.238 184.419 182.71 180.237 178.082 180.136C174.743 180.065 171.691 182.187 169.651 184.827C167.611 187.468 166.357 190.612 164.882 193.606C163.535 196.322 161.987 198.933 160.248 201.417C159.241 202.893 158.063 204.365 156.461 205.196C153.691 206.642 150.322 205.831 147.335 204.894C144.431 203.98 141.554 202.972 138.703 201.87C138.697 202.395 138.654 202.919 138.572 203.437C142.329 204.969 146.142 206.343 150.01 207.559C152.991 208.497 156.36 209.308 159.135 207.862C160.732 207.03 161.89 205.554 162.923 204.077C164.662 201.597 166.209 198.988 167.551 196.272C169.032 193.278 170.281 190.129 172.325 187.488C174.37 184.847 177.417 182.731 180.751 182.802C185.384 182.902 189.912 187.085 194.132 185.175C202.669 181.315 202.019 164.071 202.417 156.36C202.88 147.396 212.63 140.411 204.482 131.925Z" fill="black"/>
</g>
<path opacity="0.1" d="M138.119 202.697C137.691 203.453 137.273 204.208 136.89 204.984C136.744 205.282 136.603 205.589 136.477 205.897C133.838 203.236 127.412 196.912 123.826 194.951C124.698 193.081 125.834 191.347 127.2 189.801C127.2 189.801 135.747 194.321 138.119 202.697Z" fill="black"/>
<path d="M138.356 202.284C136.377 193.319 127.2 188.466 127.2 188.466C125.833 190.011 124.697 191.745 123.826 193.616C127.608 195.687 134.579 202.631 136.89 204.985L138.356 202.284Z" fill="#EB5569"/>
<defs>
<linearGradient id="paint0_linear_4_6" x1="368.094" y1="59.0723" x2="368.094" y2="49.8101" gradientUnits="userSpaceOnUse">
<stop stop-color="#808080" stop-opacity="0.25"/>
<stop offset="0.54" stop-color="#808080" stop-opacity="0.12"/>
<stop offset="1" stop-color="#808080" stop-opacity="0.1"/>
</linearGradient>
<linearGradient id="paint1_linear_4_6" x1="231050" y1="331849" x2="231050" y2="23147.5" gradientUnits="userSpaceOnUse">
<stop stop-color="#808080" stop-opacity="0.25"/>
<stop offset="0.54" stop-color="#808080" stop-opacity="0.12"/>
<stop offset="1" stop-color="#808080" stop-opacity="0.1"/>
</linearGradient>
</defs>
</svg>
